<svg width="197" height="19" viewBox="0 0 197 19" fill="none" xmlns="http://www.w3.org/2000/svg">
<path d="M1 17L4.86207 15.2911H8.72414L12.5862 13.5823L17.4138 15.2911L21.2759 17L25.1379 15.2911H29.9655L33.8276 8.64557L37.6897 6.93671L42.5172 11.8734L46.3793 15.2911L50.2414 11.8734L55.069 8.64557L58.931 11.8734L62.7931 5.22785L67.6207 2L71.4828 3.51899L75.3448 5.22785L80.1724 2L84.0345 17L87.8965 6.93671L92.7241 5.22785L96.5862 17L100.448 6.93671L104.31 3.51899L109.138 15.2911L113 8.64557L116.862 13.5823L121.69 2L125.552 10.1646L129.414 3.51899L134.241 17L138.103 15.2911H141.966L146.793 5.22785L150.655 8.64557L154.517 11.8734L159.345 8.64557L163.207 15.2911L167.069 13.5823L171.897 11.8734L175.759 15.2911L179.621 11.8734L184.448 17L188.31 15.2911L192.172 17H197" stroke="#73D29C" stroke-opacity="0.8"/>
</svg>
