<svg role="img" xmlns="http://www.w3.org/2000/svg" viewBox="0 0 197 435">
  <path
    d="M55.27 32.4V.4H40.39v32h14.88zm20.164 0V.4h-14.88v32h14.88zm20.163 0V.4h-14.88v32h14.88zm20.164 0V.4h-14.88v32h14.88zm20.164 0V.4h-14.88v32h14.88zm20.164 0V.4h-14.88v32h14.88zm20.163 0V.4h-14.88v32h14.88zm20.164 0V.4h-14.88v32h14.88zM55.27 69.4v-32H40.39v32h14.88zm20.164 0v-32h-14.88v32h14.88zm20.163 0v-32h-14.88v32h14.88zm20.164 0v-32h-14.88v32h14.88zm20.164 0v-32h-14.88v32h14.88zm20.164 0v-32h-14.88v32h14.88zm20.163 0v-32h-14.88v32h14.88zm20.164 0v-32h-14.88v32h14.88zm-181.536 37v-32H0v32h14.88zm20.164 0v-32h-14.88v32h14.88zm20.164 0v-32h-14.88v32h14.88zm20.163 0v-32h-14.88v32h14.88zm20.164 0v-32h-14.88v32h14.88zm-80.655 37v-32H0v32h14.88zm20.164 0v-32h-14.88v32h14.88zm20.164 0v-32h-14.88v32h14.88zm20.163 0v-32h-14.88v32h14.88zm20.164 0v-32h-14.88v32h14.88zm-80.655 37v-32H0v32h14.88zm20.164 0v-32h-14.88v32h14.88zm20.164 0v-32h-14.88v32h14.88zm20.163 0v-32h-14.88v32h14.88zm20.164 0v-32h-14.88v32h14.88zm-80.655 37v-32H0v32h14.88zm20.164 0v-32h-14.88v32h14.88zm20.164 0v-32h-14.88v32h14.88zm20.163 0v-32h-14.88v32h14.88zm20.164 0v-32h-14.88v32h14.88z"
    fill="#E86886" />
  <path
    d="M10.976 251.744V223.68H8.864v28.064h2.112zm20.164 0V223.68h-2.112v28.064h2.112zm20.163 0V223.68h-2.111v28.064h2.111zm20.164 0V223.68h-2.112v28.064h2.112zm20.164 0V223.68h-2.112v28.064h2.112zm-20.07 37V260.68h-2.112v28.064h2.112zm20.164 0V260.68h-2.112v28.064h2.112zm20.163 0V260.68h-2.112v28.064h2.112zm20.164 0V260.68h-2.112v28.064h2.112zm20.164 0V260.68h-2.112v28.064h2.112zm20.164 0V260.68h-2.112v28.064h2.112zm-100.819 37V297.68h-2.112v28.064h2.112zm20.164 0V297.68h-2.112v28.064h2.112zm20.163 0V297.68h-2.112v28.064h2.112zm20.164 0V297.68h-2.112v28.064h2.112zm20.164 0V297.68h-2.112v28.064h2.112zm20.164 0V297.68h-2.112v28.064h2.112zm-161.404 37V334.68H8.864v28.064h2.112zm20.164 0V334.68h-2.112v28.064h2.112zm20.163 0V334.68h-2.111v28.064h2.111zm20.164 0V334.68h-2.112v28.064h2.112zm20.164 0V334.68h-2.112v28.064h2.112zm20.164 0V334.68h-2.112v28.064h2.112zm20.163 0V334.68h-2.112v28.064h2.112zm20.164 0V334.68h-2.112v28.064h2.112zm20.164 0V334.68h-2.112v28.064h2.112zm-161.31 37V371.68H8.864v28.064h2.112zm20.164 0V371.68h-2.112v28.064h2.112zm20.163 0V371.68h-2.111v28.064h2.111zm-40.327 37V408.68H8.864v28.064h2.112zm20.164 0V408.68h-2.112v28.064h2.112zm20.163 0V408.68h-2.111v28.064h2.111zm-40.327 37V445.68H8.864v28.064h2.112zm20.164 0V445.68h-2.112v28.064h2.112zm20.163 0V445.68h-2.111v28.064h2.111z"
    fill="#48D597" />
</svg>
