<svg xmlns="http://www.w3.org/2000/svg" viewBox="0 0 32 32" role="img">
  <title>Search</title>
  <path fill-rule="evenodd"
    d="M22.47 20.649c3.152-4.048 2.867-9.905-.854-13.627-4.03-4.03-10.564-4.03-14.594 0-4.03 4.03-4.03 10.564 0 14.594 3.722 3.721 9.579 4.006 13.627.854.017.02.035.039.054.058L26.176 28s.538-.279 1.042-.782c.503-.504.782-1.042.782-1.042l-5.472-5.473a1.29 1.29 0 00-.058-.054zM19.79 8.846A7.74 7.74 0 118.847 19.791 7.74 7.74 0 0119.79 8.846z"
    clip-rule="evenodd" />
</svg>
