<svg role="img" xmlns="http://www.w3.org/2000/svg" viewBox="0 0 32 32" >
  <title>Support</title>
  <path fill-rule="evenodd"
    d="M16.338 28.996A13.004 13.004 0 013.985 20.97a13.044 13.044 0 01.022-9.997A13.02 13.02 0 016.78 6.835l.054-.055a13.02 13.02 0 014.117-2.763 13.044 13.044 0 0110.079-.008 13.02 13.02 0 014.142 2.78l.039.038a13.007 13.007 0 012.799 4.19 13.016 13.016 0 01-7.106 17.026c-1.452.59-2.999.913-4.566.953zm2.304-8.515l3.736 3.735a10.404 10.404 0 01-12.755 0l3.736-3.736a5.21 5.21 0 005.283 0zm-7.121-1.84l-3.737 3.737a10.405 10.405 0 010-12.756l3.737 3.736a5.209 5.209 0 000 5.283zm1.986-1.901a2.614 2.614 0 01-.018-1.413c.117-.441.35-.843.673-1.165a2.587 2.587 0 012.511-.674c.427.115.831.338 1.165.674a2.588 2.588 0 01.674 2.511c-.115.427-.338.83-.674 1.165a2.587 2.587 0 01-2.511.673 2.589 2.589 0 01-1.165-.673 2.586 2.586 0 01-.655-1.099zm5.135-5.22a5.21 5.21 0 00-5.283 0L9.623 7.784a10.405 10.405 0 0112.755 0l-3.736 3.736zm5.574 10.858a10.405 10.405 0 000-12.756l-3.736 3.736a5.209 5.209 0 010 5.283l3.736 3.737z"
    clip-rule="evenodd" />
</svg>
