<svg viewBox="0 0 243 41"  xmlns="http://www.w3.org/2000/svg"><title>Oxide wordmark</title><g clip-path="url(#clip0)"><path d="M34.98 20.47c0-8.67-6.5-14-13.9-14a13.5 13.5 0 00-13.85 14 13.5 13.5 0 0013.85 14c7.4 0 13.9-5.3 13.9-14zm-35-.06C-.02 8.55 9.14 0 21.06 0c11.92 0 21.13 8.55 21.13 20.41S33 40.94 21.08 40.94 0 32.33 0 20.41" fill="#fff"></path><path d="M95.65 35.16c1.93 2.28.3 5.54-2.83 5.54-1.45 0-2.17-.79-3.19-1.93L78.19 25.16 66.74 38.77c-1.08 1.2-1.75 1.93-3.31 1.93a3.31 3.31 0 01-2.69-5.48l13-14.87L61.27 5.84A3.36 3.36 0 0164.04.3c1.39 0 2.23.72 3.31 2l11 13.18 11-13.18c1.08-1.21 1.8-2 3.31-2 3 0 4.75 3.25 2.71 5.54L82.74 20.29l12.91 14.87z" fill="#48D597"></path><path d="M124.83.24a3.004 3.004 0 013.041 1.741c.173.38.264.792.269 1.209v34.56a3.33 3.33 0 01-6.62 0V3.19a3.002 3.002 0 013.31-2.95zm37.83 33.89h4.81c8.07 0 14.21-5 14.21-13.72 0-8.55-6.08-13.67-14.15-13.67h-4.87c-.85 0-1.21.36-1.21 1.38v24.63c0 1.08.36 1.38 1.21 1.38zm-7.83 3.25V3.49a2.685 2.685 0 01.836-2.12 2.67 2.67 0 012.164-.71h8.67c14 0 22.4 8.25 22.4 19.75s-8.36 19.87-22.39 19.87h-8.67a2.703 2.703 0 01-2.835-1.73 2.7 2.7 0 01-.165-1.17m66.24-3.25h18.42a3.071 3.071 0 010 6.14h-23c-2 0-3.25-1.08-3.25-3.07V3.73A2.93 2.93 0 01216.5.68h22.7a3.041 3.041 0 010 6.08h-18.12c-.84 0-1.21.36-1.21 1.38v9.28h13.73a2.844 2.844 0 012.941 1.791c.15.385.214.797.189 1.209a2.79 2.79 0 01-.854 2.242 2.794 2.794 0 01-2.276.758h-13.73v9.39c0 1.08.37 1.38 1.21 1.38" fill="#fff"></path></g></svg>