<svg width="143" height="143" viewBox="0 0 143 143" fill="none" xmlns="http://www.w3.org/2000/svg">
<path d="M71.92 142.92C57.8775 142.92 44.1504 138.756 32.4745 130.954C20.7986 123.153 11.6983 112.064 6.32451 99.0905C0.950685 86.117 -0.455352 71.8413 2.2842 58.0686C5.02375 44.296 11.7858 31.645 21.7154 21.7154C31.6449 11.7859 44.2959 5.02381 58.0685 2.28426C71.8412 -0.455291 86.1169 0.950746 99.0905 6.32457C112.064 11.6984 123.153 20.7986 130.954 32.4745C138.756 44.1504 142.92 57.8775 142.92 71.92C142.87 72.8772 142.455 73.7788 141.76 74.4388C141.065 75.0987 140.143 75.4667 139.185 75.4667C138.227 75.4667 137.305 75.0987 136.61 74.4388C135.915 73.7788 135.499 72.8772 135.45 71.92C135.442 59.3663 131.713 47.0967 124.733 36.6619C117.754 26.2272 107.838 18.0957 96.2381 13.2953C84.6384 8.49481 71.876 7.24087 59.5639 9.69192C47.2518 12.143 35.9426 18.189 27.0658 27.0658C18.1889 35.9426 12.1429 47.2518 9.69186 59.5639C7.24081 71.8761 8.49475 84.6385 13.2952 96.2381C18.0957 107.838 26.2271 117.754 36.6619 124.733C47.0966 131.713 59.3662 135.442 71.92 135.45C72.8771 135.5 73.7787 135.915 74.4387 136.61C75.0987 137.305 75.4666 138.227 75.4666 139.185C75.4666 140.143 75.0987 141.065 74.4387 141.76C73.7787 142.455 72.8771 142.87 71.92 142.92Z" fill="white"/>
<path d="M135.44 137.36C137.38 139.74 136.06 142.92 132.88 142.92C131.29 142.92 130.5 142.12 129.44 140.8L110.3 117.96L91.0799 140.8C89.9299 142.21 89.2199 142.92 87.5499 142.92C84.6399 142.92 83.3199 139.74 85.3399 137.36L105.98 113.19L86.1399 89.47C84.1399 87 85.5199 83.82 88.4299 83.82C89.8399 83.82 90.9899 84.71 92.1399 86.12L110.57 108.31L128.82 86.09C130.06 84.68 130.82 83.79 132.53 83.79C135.44 83.79 136.94 86.88 134.82 89.44L114.71 112.99L135.44 137.36Z" fill="#48D597"/>
</svg>
