<svg width="243" height="41" viewBox="0 0 243 41" fill="none" xmlns="http://www.w3.org/2000/svg">
<g clip-path="url(#clip0)">
<path d="M34.98 20.47C34.98 11.8 28.48 6.47 21.08 6.47C19.235 6.42086 17.3996 6.75054 15.6871 7.43867C13.9746 8.12681 12.4213 9.15878 11.1233 10.4708C9.82533 11.7829 8.81016 13.3471 8.14051 15.067C7.47086 16.7868 7.16097 18.6257 7.22998 20.47C7.16097 22.3143 7.47086 24.1532 8.14051 25.873C8.81016 27.5929 9.82533 29.1571 11.1233 30.4692C12.4213 31.7812 13.9746 32.8132 15.6871 33.5013C17.3996 34.1895 19.235 34.5191 21.08 34.47C28.48 34.47 34.98 29.17 34.98 20.47ZM-0.0200195 20.41C-0.0200195 8.55 9.13998 0 21.06 0C32.98 0 42.19 8.55 42.19 20.41C42.19 32.27 33 40.94 21.08 40.94C9.15998 40.94 -1.52588e-05 32.33 -1.52588e-05 20.41" fill="white"/>
<path d="M95.65 35.16C97.58 37.44 95.95 40.7 92.82 40.7C91.37 40.7 90.65 39.91 89.63 38.77L78.19 25.16L66.74 38.77C65.66 39.97 64.99 40.7 63.43 40.7C62.7791 40.7385 62.1312 40.5839 61.5678 40.2556C61.0044 39.9272 60.5505 39.4397 60.2631 38.8543C59.9758 38.269 59.8677 37.6117 59.9526 36.9651C60.0374 36.3186 60.3114 35.7115 60.74 35.22L73.74 20.35L61.27 5.84002C60.8396 5.33798 60.5668 4.72008 60.4859 4.06372C60.405 3.40735 60.5197 2.74172 60.8154 2.15021C61.1112 1.5587 61.5749 1.06763 62.1485 0.738503C62.7221 0.409379 63.3801 0.256845 64.04 0.300015C65.43 0.300015 66.27 1.02001 67.35 2.30001L78.35 15.48L89.35 2.30001C90.43 1.09001 91.15 0.300015 92.66 0.300015C95.66 0.300015 97.41 3.55002 95.37 5.84002L82.74 20.29L95.65 35.16Z" fill="#48D597"/>
<path d="M124.83 0.239957C125.245 0.196812 125.664 0.240722 126.062 0.368882C126.459 0.497043 126.825 0.706633 127.136 0.984262C127.448 1.26189 127.698 1.60145 127.871 1.98124C128.044 2.36104 128.135 2.77271 128.14 3.18995V37.75C128.05 38.5651 127.663 39.3185 127.052 39.8657C126.441 40.4129 125.65 40.7155 124.83 40.7155C124.01 40.7155 123.219 40.4129 122.608 39.8657C121.997 39.3185 121.61 38.5651 121.52 37.75V3.18995C121.525 2.77271 121.616 2.36104 121.789 1.98124C121.962 1.60145 122.212 1.26189 122.524 0.984262C122.835 0.706633 123.201 0.497043 123.598 0.368882C123.995 0.240722 124.415 0.196812 124.83 0.239957Z" fill="white"/>
<path d="M162.66 34.13H167.47C175.54 34.13 181.68 29.13 181.68 20.41C181.68 11.86 175.6 6.73996 167.53 6.73996H162.66C161.81 6.73996 161.45 7.09996 161.45 8.11996V32.75C161.45 33.83 161.81 34.13 162.66 34.13ZM154.83 37.38V3.48996C154.805 3.09702 154.867 2.7034 155.011 2.33711C155.156 1.97081 155.379 1.64084 155.666 1.37066C155.952 1.10048 156.294 0.896728 156.669 0.773893C157.043 0.651058 157.439 0.612158 157.83 0.659963H166.5C180.5 0.659963 188.9 8.90997 188.9 20.41C188.9 31.91 180.54 40.28 166.51 40.28H157.84C157.444 40.3256 157.042 40.2828 156.664 40.1547C156.286 40.0266 155.941 39.8163 155.655 39.5389C155.368 39.2616 155.146 38.9242 155.005 38.5509C154.864 38.1776 154.808 37.7777 154.84 37.38" fill="white"/>
<path d="M221.08 34.13H239.5C240.314 34.13 241.095 34.4534 241.671 35.0292C242.247 35.6049 242.57 36.3858 242.57 37.2C242.57 38.0142 242.247 38.7951 241.671 39.3708C241.095 39.9466 240.314 40.27 239.5 40.27H216.5C214.5 40.27 213.25 39.19 213.25 37.2V3.72999C213.23 3.30679 213.302 2.8843 213.461 2.49164C213.62 2.09899 213.863 1.74552 214.172 1.45559C214.481 1.16567 214.849 0.946188 215.251 0.812289C215.653 0.678389 216.079 0.633254 216.5 0.679995H239.2C240.006 0.679995 240.78 1.00028 241.35 1.57039C241.92 2.1405 242.24 2.91374 242.24 3.72C242.24 4.52625 241.92 5.29949 241.35 5.8696C240.78 6.43971 240.006 6.76 239.2 6.76H221.08C220.24 6.76 219.87 7.11999 219.87 8.13999V17.42H233.6C234.01 17.3771 234.425 17.4241 234.816 17.5578C235.206 17.6915 235.563 17.9087 235.861 18.1943C236.158 18.4798 236.391 18.8269 236.541 19.2112C236.691 19.5956 236.755 20.0081 236.73 20.42C236.763 20.8336 236.703 21.2493 236.555 21.6371C236.408 22.0248 236.176 22.3749 235.876 22.662C235.577 22.9491 235.217 23.166 234.823 23.2971C234.43 23.4282 234.012 23.4702 233.6 23.42H219.87V32.81C219.87 33.89 220.24 34.19 221.08 34.19" fill="white"/>
</g>
<defs>
<clipPath id="clip0">
<path d="M0 0H242.69V40.94H0V0Z" fill="white"/>
</clipPath>
</defs>
</svg>
