<svg width="14" height="14" viewBox="0 0 14 14" fill="none" xmlns="http://www.w3.org/2000/svg">
<path fill-rule="evenodd" clip-rule="evenodd" d="M3.2499 1.38758C4.35993 0.645881 5.66498 0.25 7 0.25C8.79021 0.25 10.5071 0.961159 11.773 2.22703C13.0388 3.4929 13.75 5.20979 13.75 7C13.75 8.33502 13.3541 9.64006 12.6124 10.7501C11.8707 11.8601 10.8165 12.7253 9.58311 13.2362C8.34971 13.7471 6.99251 13.8807 5.68314 13.6203C4.37377 13.3598 3.17104 12.717 2.22703 11.773C1.28303 10.829 0.640153 9.62623 0.379702 8.31686C0.119252 7.00749 0.252925 5.65029 0.763816 4.41689C1.27471 3.18348 2.13987 2.12928 3.2499 1.38758ZM3.82684 11.749C4.7661 12.3766 5.87037 12.7115 7 12.7115C8.51429 12.7099 9.96608 12.1076 11.0368 11.0368C12.1076 9.96608 12.7099 8.51429 12.7115 7C12.7115 5.87036 12.3766 4.7661 11.749 3.82684C11.1214 2.88758 10.2294 2.15552 9.18571 1.72323C8.14207 1.29093 6.99367 1.17783 5.88574 1.39821C4.77781 1.61859 3.76011 2.16256 2.96133 2.96133C2.16256 3.7601 1.61859 4.7778 1.39821 5.88573C1.17783 6.99366 1.29094 8.14206 1.72323 9.18571C2.15552 10.2294 2.88758 11.1214 3.82684 11.749ZM9.90078 3.36542L10.635 4.09961L8.40228 6.3323C8.56342 6.66685 8.60096 7.04763 8.50823 7.4072C8.4155 7.76676 8.1985 8.0819 7.89567 8.29679C7.59283 8.51169 7.22371 8.61246 6.85369 8.58125C6.48368 8.55005 6.13664 8.38889 5.87407 8.12632C5.6115 7.86375 5.45034 7.51672 5.41914 7.1467C5.38793 6.77668 5.4887 6.40756 5.7036 6.10473C5.91849 5.80189 6.23363 5.58489 6.59319 5.49216C6.95276 5.39944 7.33355 5.43697 7.66809 5.59811L9.90078 3.36542ZM6.71189 7.43176C6.79728 7.48881 6.89766 7.51926 7.00036 7.51926C7.13807 7.51926 7.27014 7.46456 7.36751 7.36718C7.46488 7.26981 7.51959 7.13774 7.51959 7.00003C7.51959 6.89734 7.48914 6.79695 7.43208 6.71156C7.37503 6.62618 7.29394 6.55962 7.19906 6.52033C7.10418 6.48103 6.99978 6.47074 6.89906 6.49078C6.79834 6.51081 6.70582 6.56026 6.63321 6.63288C6.56059 6.7055 6.51114 6.79801 6.4911 6.89874C6.47107 6.99946 6.48135 7.10386 6.52065 7.19873C6.55995 7.29361 6.6265 7.3747 6.71189 7.43176ZM11.162 4.88885L10.3697 5.6812C10.5422 6.09962 10.6321 6.54747 10.6345 7.00005C10.6315 7.65081 10.4521 8.28859 10.1152 8.84539L10.8785 9.60866C11.3437 8.91931 11.6155 8.11778 11.6656 7.28763C11.7156 6.45748 11.5421 5.62911 11.163 4.88885H11.162ZM8.28036 3.61665C7.87306 3.45342 7.43871 3.36818 6.99993 3.36535C6.03597 3.36535 5.1115 3.74828 4.42987 4.4299C3.74825 5.11152 3.36532 6.036 3.36532 6.99996C3.36824 7.65073 3.54769 8.2885 3.88455 8.84531L3.12232 9.60858C2.54872 8.75312 2.27381 7.73213 2.34032 6.70433C2.40683 5.67652 2.81103 4.69948 3.49009 3.92508C4.16916 3.15069 5.08503 2.62233 6.09535 2.42214C7.10566 2.22194 8.15381 2.36114 9.07685 2.81808L8.28036 3.61665Z" fill="#A1A1AA"/>
</svg>
