<svg xmlns="http://www.w3.org/2000/svg" viewBox="0 0 24 24" role="img">
  <title>Dashboard</title>
  <path fill-rule="evenodd" clip-rule="evenodd"
    d="M12 8.25a2.25 2.25 0 100-4.5 2.25 2.25 0 000 4.5zM8.25 12a2.25 2.25 0 11-4.5 0 2.25 2.25 0 014.5 0zM12 14.25a2.25 2.25 0 100-4.5 2.25 2.25 0 000 4.5zm6 0a2.25 2.25 0 100-4.5 2.25 2.25 0 000 4.5zM20.25 6a2.25 2.25 0 11-4.5 0 2.25 2.25 0 014.5 0zM6 8.25a2.25 2.25 0 100-4.5 2.25 2.25 0 000 4.5zM14.25 18a2.25 2.25 0 11-4.5 0 2.25 2.25 0 014.5 0zM18 20.25a2.25 2.25 0 100-4.5 2.25 2.25 0 000 4.5zM8.25 18a2.25 2.25 0 11-4.5 0 2.25 2.25 0 014.5 0z" />
</svg>
