 <svg viewBox="0 0 18 19" fill="none" xmlns="http://www.w3.org/2000/svg" role="img" aria-labelledby="icon-dashboard">
  <title id="icon-dashboard">Dashboard</title>
  <path
    fill-rule="evenodd"
    clip-rule="evenodd"
    d="M5.25 3.888a6.75 6.75 0 117.5 11.224 6.75 6.75 0 01-7.5-11.224zm.577 10.361a5.711 5.711 0 106.346-9.498 5.711 5.711 0 00-6.346 9.498zM11.9 5.865l.734.735-2.233 2.232a1.572 1.572 0 11-.734-.734L11.9 5.865zM8.71 9.932a.52.52 0 10.578-.864.52.52 0 00-.577.864zm4.451-2.543l-.792.792c.172.419.262.866.265 1.319a3.597 3.597 0 01-.52 1.845l.764.764a4.65 4.65 0 00.284-4.72zM10.28 6.117A3.503 3.503 0 009 5.865 3.635 3.635 0 005.365 9.5c.003.65.183 1.289.52 1.845l-.763.764a4.673 4.673 0 015.955-6.79l-.797.798z"
  />
</svg>
