<svg fill="none" xmlns="http://www.w3.org/2000/svg" viewBox="0 0 193 257" role="img"><path d="M43.372 28.414V.35H41.26v28.064h2.112zm20.164 0V.35h-2.112v28.064h2.112zm20.163 0V.35h-2.112v28.064H83.7zm20.164 0V.35h-2.112v28.064h2.112zm20.164 0V.35h-2.112v28.064h2.112zm20.164 0V.35h-2.112v28.064h2.112zm20.163 0V.35h-2.112v28.064h2.112zm20.164 0V.35h-2.112v28.064h2.112zm20.164 0V.35h-2.112v28.064h2.112zm-141.115 296V296.35h-2.112v28.064h2.112zm20.164 0V296.35h-2.112v28.064h2.112zm20.163 0V296.35h-2.112v28.064h2.112zm20.164 0V296.35h-2.112v28.064h2.112zm20.164 0V296.35h-2.112v28.064h2.112zm20.164 0V296.35h-2.112v28.064h2.112zm-100.82 37V333.35h-2.111v28.064h2.112zm20.165 0V333.35h-2.112v28.064h2.112zm20.163 0V333.35h-2.112v28.064h2.112zm20.164 0V333.35h-2.112v28.064h2.112zm20.164 0V333.35h-2.112v28.064h2.112zm20.164 0V333.35h-2.112v28.064h2.112zm-100.82 37V370.35h-2.111v28.064h2.112zm20.165 0V370.35h-2.112v28.064h2.112zm20.163 0V370.35h-2.112v28.064h2.112zm20.164 0V370.35h-2.112v28.064h2.112zm20.164 0V370.35h-2.112v28.064h2.112zm20.164 0V370.35h-2.112v28.064h2.112zm-100.82 37V407.35h-2.111v28.064h2.112zm20.165 0V407.35h-2.112v28.064h2.112zm20.163 0V407.35h-2.112v28.064h2.112zm20.164 0V407.35h-2.112v28.064h2.112zm20.164 0V407.35h-2.112v28.064h2.112zm20.164 0V407.35h-2.112v28.064h2.112zm-161.404 37V444.35H.87v28.064h2.112zm20.164 0V444.35h-2.112v28.064h2.112zm20.163 0V444.35h-2.112v28.064h2.112zm20.164 0V444.35h-2.112v28.064h2.112zm20.164 0V444.35h-2.112v28.064h2.112zm20.164 0V444.35h-2.112v28.064h2.112zm20.163 0V444.35h-2.112v28.064h2.112zm20.164 0V444.35h-2.112v28.064h2.112zm20.164 0V444.35h-2.112v28.064h2.112zm-161.31 37V481.35H.87v28.064h2.112zm20.164 0V481.35h-2.112v28.064h2.112zm20.163 0V481.35h-2.112v28.064h2.112zm20.164 0V481.35h-2.112v28.064h2.112zm20.164 0V481.35h-2.112v28.064h2.112zm20.164 0V481.35h-2.112v28.064h2.112zm20.163 0V481.35h-2.112v28.064h2.112zm20.164 0V481.35h-2.112v28.064h2.112zm20.164 0V481.35h-2.112v28.064h2.112zm-161.31 37V518.35H.87v28.064h2.112zm20.164 0V518.35h-2.112v28.064h2.112zm20.163 0V518.35h-2.112v28.064h2.112zm20.164 0V518.35h-2.112v28.064h2.112zm20.164 0V518.35h-2.112v28.064h2.112zm20.164 0V518.35h-2.112v28.064h2.112zm20.163 0V518.35h-2.112v28.064h2.112zm20.164 0V518.35h-2.112v28.064h2.112zm20.164 0V518.35h-2.112v28.064h2.112z" fill="#48D597"/><path d="M128.056 68.07v-32h-14.88v32h14.88zm20.164 0v-32h-14.88v32h14.88zm20.163 0v-32h-14.88v32h14.88zm20.164 0v-32h-14.88v32h14.88zm20.164 0v-32h-14.88v32h14.88zm-40.265 37v-32h-14.88v32h14.88zm20.164 0v-32h-14.88v32h14.88zm20.163 0v-32h-14.88v32h14.88zm-40.327 37v-32h-14.88v32h14.88zm20.164 0v-32h-14.88v32h14.88zm20.163 0v-32h-14.88v32h14.88zm-40.327 37v-32h-14.88v32h14.88zm20.164 0v-32h-14.88v32h14.88zm20.163 0v-32h-14.88v32h14.88zm-40.327 37v-32h-14.88v32h14.88zm20.164 0v-32h-14.88v32h14.88zm20.163 0v-32h-14.88v32h14.88zm-40.327 37v-32h-14.88v32h14.88zm20.164 0v-32h-14.88v32h14.88zm20.163 0v-32h-14.88v32h14.88zm-80.717 37v-32h-14.88v32h14.88zm20.164 0v-32h-14.88v32h14.88zm20.163 0v-32h-14.88v32h14.88zm20.164 0v-32h-14.88v32h14.88zm20.164 0v-32h-14.88v32h14.88zm-20.258 37v-32h-14.88v32h14.88zm20.164 0v-32h-14.88v32h14.88zm-20.164 37v-32h-14.88v32h14.88zm20.164 0v-32h-14.88v32h14.88zm-20.164 37v-32h-14.88v32h14.88zm20.164 0v-32h-14.88v32h14.88zm-20.164 37v-32h-14.88v32h14.88zm20.164 0v-32h-14.88v32h14.88zm-20.257 37v-32h-14.88v32h14.88zm20.163 0v-32h-14.88v32h14.88z" fill="#E86886"/></svg>
