<svg xmlns="http://www.w3.org/2000/svg" viewBox="0 0 24 24" role="img" aria-labelledby="icon-instances"><title id="icon-instances">Instances</title><path fill-rule="evenodd" clip-rule="evenodd" d="M12.454 17.167H6.886c-1.318 0-2.386-1.12-2.386-2.5V8c0-1.38 1.068-2.5 2.386-2.5h12.728C20.932 5.5 22 6.62 22 8v6.667c0 1.38-1.068 2.5-2.386 2.5h-5.569v1.666h2.387c.44 0 .795.373.795.834 0 .46-.356.833-.795.833h-6.364c-.44 0-.795-.373-.795-.833 0-.46.356-.834.795-.834h2.386v-1.666zm-5.568-10h12.728c.439 0 .795.373.795.833v6.667c0 .46-.356.833-.795.833H6.886c-.439 0-.795-.373-.795-.833V8c0-.46.356-.833.795-.833z" /><path d="M14.954 4.25H4.045c-.376 0-.681.28-.681.625v5c0 .345.305.625.681.625v1.25C2.915 11.75 2 10.91 2 9.875v-5C2 3.839 2.916 3 4.045 3h10.91C16.084 3 17 3.84 17 4.875h-1.364c0-.345-.305-.625-.681-.625z" /></svg>
