<svg width="119" height="20" viewBox="0 0 119 20" fill="none" xmlns="http://www.w3.org/2000/svg">
<path d="M17.0884 10C17.0884 5.76453 13.913 3.16072 10.298 3.16072C9.39671 3.13672 8.50006 3.29777 7.66346 3.63394C6.82686 3.97011 6.06807 4.47424 5.43398 5.11521C4.79988 5.75617 4.30395 6.52034 3.97681 7.36051C3.64968 8.20069 3.49829 9.09902 3.532 10C3.49829 10.901 3.64968 11.7993 3.97681 12.6395C4.30395 13.4797 4.79988 14.2438 5.43398 14.8848C6.06807 15.5258 6.82686 16.0299 7.66346 16.3661C8.50006 16.7022 9.39671 16.8633 10.298 16.8393C13.913 16.8393 17.0884 14.2501 17.0884 10ZM-0.00976562 9.97069C-0.00976562 4.17685 4.46508 0 10.2882 0C16.1114 0 20.6107 4.17685 20.6107 9.97069C20.6107 15.7645 16.1212 20 10.298 20C4.47485 20 6.85826e-06 15.7938 6.85826e-06 9.97069" fill="white"/>
<path d="M46.7268 17.1764C47.6697 18.2902 46.8734 19.8828 45.3443 19.8828C44.636 19.8828 44.2842 19.4968 43.7859 18.9399L38.1973 12.2912L32.6037 18.9399C32.0761 19.5261 31.7488 19.8828 30.9867 19.8828C30.6687 19.9016 30.3522 19.826 30.077 19.6656C29.8017 19.5052 29.58 19.2671 29.4396 18.9811C29.2992 18.6951 29.2465 18.3741 29.2879 18.0582C29.3294 17.7423 29.4632 17.4457 29.6726 17.2057L36.0234 9.94138L29.9315 2.85295C29.7212 2.6077 29.588 2.30584 29.5485 1.9852C29.509 1.66455 29.565 1.33937 29.7094 1.05041C29.8539 0.761447 30.0805 0.521546 30.3607 0.360763C30.6409 0.19998 30.9623 0.125463 31.2847 0.146553C31.9638 0.146553 32.3741 0.498287 32.9017 1.12359L38.2754 7.56229L43.6492 1.12359C44.1768 0.532483 44.5285 0.146553 45.2662 0.146553C46.7317 0.146553 47.5866 1.73424 46.59 2.85295L40.42 9.91207L46.7268 17.1764Z" fill="#73D29C"/>
<path d="M60.982 0.117246C61.1847 0.0961686 61.3897 0.117619 61.5837 0.180228C61.7776 0.242837 61.9564 0.345226 62.1086 0.480853C62.2608 0.61648 62.383 0.782363 62.4675 0.967899C62.5519 1.15344 62.5967 1.35455 62.599 1.55838V18.4416C62.5551 18.8398 62.3659 19.2079 62.0675 19.4752C61.7691 19.7425 61.3826 19.8904 60.982 19.8904C60.5814 19.8904 60.1948 19.7425 59.8965 19.4752C59.5981 19.2079 59.4088 18.8398 59.365 18.4416V1.55838C59.3673 1.35455 59.4121 1.15344 59.4965 0.967899C59.581 0.782363 59.7032 0.61648 59.8554 0.480853C60.0075 0.345226 60.1863 0.242837 60.3803 0.180228C60.5743 0.117619 60.7792 0.0961686 60.982 0.117246Z" fill="white"/>
<path d="M79.4628 16.6732H81.8125C85.7549 16.6732 88.7544 14.2306 88.7544 9.9707C88.7544 5.79385 85.7842 3.29263 81.8418 3.29263H79.4628C79.0475 3.29263 78.8716 3.4685 78.8716 3.96679V15.999C78.8716 16.5266 79.0475 16.6732 79.4628 16.6732ZM75.6376 18.2609V1.70494C75.6255 1.51298 75.6557 1.32069 75.7263 1.14175C75.7968 0.962806 75.9059 0.801608 76.0459 0.669619C76.1858 0.53763 76.3531 0.438094 76.5358 0.378087C76.7185 0.318079 76.9123 0.299076 77.1032 0.32243H81.3387C88.1779 0.32243 92.2815 4.35272 92.2815 9.9707C92.2815 15.5887 88.1975 19.6776 81.3436 19.6776H77.1081C76.9144 19.6999 76.7183 19.679 76.5337 19.6164C76.3491 19.5538 76.1806 19.4511 76.0405 19.3156C75.9004 19.1801 75.792 19.0153 75.7232 18.8329C75.6543 18.6505 75.6268 18.4552 75.6425 18.2609" fill="white"/>
<path d="M108.002 16.6732H117.001C117.398 16.6732 117.78 16.8312 118.061 17.1124C118.342 17.3937 118.5 17.7752 118.5 18.1729C118.5 18.5707 118.342 18.9522 118.061 19.2334C117.78 19.5147 117.398 19.6727 117.001 19.6727H105.765C104.788 19.6727 104.177 19.1451 104.177 18.1729V1.82218C104.167 1.61544 104.202 1.40904 104.28 1.21722C104.358 1.0254 104.476 0.852722 104.627 0.711088C104.778 0.569454 104.958 0.462234 105.154 0.396821C105.351 0.331409 105.559 0.30936 105.765 0.332193H116.854C117.248 0.332193 117.626 0.488659 117.904 0.767169C118.183 1.04568 118.339 1.42342 118.339 1.81729C118.339 2.21117 118.183 2.58891 117.904 2.86742C117.626 3.14593 117.248 3.30239 116.854 3.30239H108.002C107.592 3.30239 107.411 3.47826 107.411 3.97655V8.51001H114.118C114.319 8.48904 114.521 8.51202 114.712 8.57734C114.903 8.64267 115.077 8.74877 115.223 8.88827C115.368 9.02776 115.482 9.1973 115.555 9.38508C115.628 9.57285 115.66 9.77436 115.647 9.97557C115.663 10.1776 115.634 10.3807 115.562 10.5701C115.49 10.7596 115.377 10.9306 115.23 11.0708C115.084 11.2111 114.908 11.3171 114.716 11.3811C114.524 11.4451 114.319 11.4657 114.118 11.4411H107.411V16.0283C107.411 16.5559 107.592 16.7025 108.002 16.7025" fill="white"/>
</svg>
