<svg width="16" height="16" viewBox="0 0 16 16" fill="none" xmlns="http://www.w3.org/2000/svg">
<path fill-rule="evenodd" clip-rule="evenodd" d="M4.81775 3.75718L7.99973 0.575195L11.1817 3.75718L7.99973 6.93916L4.81775 3.75718ZM6.93907 3.75718L7.99973 2.69652L9.06039 3.75718L7.99973 4.81784L6.93907 3.75718Z" fill="#A1A1AA"/>
<path fill-rule="evenodd" clip-rule="evenodd" d="M0.575195 7.99977L3.75718 4.81779L6.93916 7.99977L3.75718 11.1818L0.575195 7.99977ZM2.69652 7.99977L3.75718 6.93912L4.81784 7.99977L3.75718 9.06044L2.69652 7.99977Z" fill="#A1A1AA"/>
<path fill-rule="evenodd" clip-rule="evenodd" d="M9.06049 7.99977L12.2425 11.1818L15.4244 7.99977L12.2425 4.81779L9.06049 7.99977ZM12.2425 6.93912L11.1818 7.99977L12.2425 9.06044L13.3031 7.99977L12.2425 6.93912Z" fill="#A1A1AA"/>
<path fill-rule="evenodd" clip-rule="evenodd" d="M4.81775 12.2425L7.99973 9.06053L11.1817 12.2425L7.99973 15.4245L4.81775 12.2425ZM6.93907 12.2425L7.99973 11.1819L9.06039 12.2425L7.99973 13.3032L6.93907 12.2425Z" fill="#A1A1AA"/>
</svg>
