<svg viewBox="0 0 18 19" fill="none" xmlns="http://www.w3.org/2000/svg" role="img" aria-labelledby="icon-server">
  <title id="icon-server">Server</title>
  <path
    fill-rule="evenodd"
    clip-rule="evenodd"
    d="M2.8125 6.125L2.25 5.5625V2.1875L2.8125 1.625H15.1875L15.75 2.1875V5.5625L15.1875 6.125H2.8125ZM11.25 2.75H10.125V3.875H9V2.75H7.875V3.875H6.75V2.75H5.625V3.875H4.5V2.75H3.375V5H14.625V2.75H12.375V3.875H11.25V2.75ZM2.8125 11.75L2.25 11.1875V7.8125L2.8125 7.25H15.1875L15.75 7.8125V11.1875L15.1875 11.75H2.8125ZM6.75 8.375H5.625V9.5H4.5V8.375H3.375V10.625H14.625V8.375H12.375V9.5H11.25V8.375H10.125V9.5H9V8.375H7.875V9.5H6.75V8.375ZM15.1875 17.375L15.75 16.8125V13.4375L15.1875 12.875H2.8125L2.25 13.4375V16.8125L2.8125 17.375H15.1875ZM3.375 16.25V14H4.5V15.125H5.625V14H6.75V15.125H7.875V14H9V15.125H10.125V14H11.25V15.125H12.375V14H14.625V16.25H3.375Z"
  />
</svg>
