<svg xmlns="http://www.w3.org/2000/svg" viewBox="0 0 24 24" role="img">
  <title>Support</title>
  <path fill-rule="evenodd" clip-rule="evenodd"
    d="M12.26 21.997a10.276 10.276 0 01-.52 0 10.004 10.004 0 01-8.983-6.173 10.034 10.034 0 01.017-7.69A10.015 10.015 0 014.908 4.95l.042-.042a10.015 10.015 0 013.167-2.126 10.034 10.034 0 017.753-.006 10.015 10.015 0 013.186 2.138l.03.03c.913.917 1.65 2.01 2.153 3.223a10.012 10.012 0 01.76 3.985 10.004 10.004 0 01-6.226 9.112 10.013 10.013 0 01-3.512.733zm1.772-6.55l2.874 2.873a8.004 8.004 0 01-9.812 0l2.874-2.874a4.007 4.007 0 004.064 0zm-5.478-1.415L5.68 16.906a8.004 8.004 0 010-9.812l2.874 2.874a4.007 4.007 0 000 4.064zm1.528-1.463a2.01 2.01 0 01-.014-1.087 1.99 1.99 0 01.518-.896 1.99 1.99 0 011.932-.518c.328.088.639.26.896.518a1.99 1.99 0 01.518 1.932c-.088.328-.26.639-.518.896a1.99 1.99 0 01-1.932.518 1.991 1.991 0 01-.896-.518 1.99 1.99 0 01-.504-.845zm3.95-4.015a4.007 4.007 0 00-4.064 0L7.094 5.68a8.004 8.004 0 019.812 0l-2.874 2.874zm4.288 8.352a8.004 8.004 0 000-9.812l-2.874 2.874a4.007 4.007 0 010 4.064l2.874 2.874z" />
</svg>
