<svg fill="none" xmlns="http://www.w3.org/2000/svg" viewBox="0 0 22 19" role="img" aria-labelledby="icon-users"><title id="icon-users">Users</title>><path fill-rule="evenodd" clip-rule="evenodd" d="M11 8.093a4 4 0 100-8 4 4 0 000 8zm0-2a2 2 0 100-4 2 2 0 000 4z" /><path d="M14 11.093a1 1 0 011 1v6h2v-6a3 3 0 00-3-3H8a3 3 0 00-3 3v6h2v-6a1 1 0 011-1h6z" /><path fill-rule="evenodd" clip-rule="evenodd" d="M15.397 4.104c0 .707-.168 1.374-.465 1.965a2.667 2.667 0 10.29-3.191c.114.389.175.8.175 1.226zM17.2 6a1.333 1.333 0 100-2.667A1.333 1.333 0 0017.2 6z" /><path d="M15.2 8v.385a3.28 3.28 0 011.511.948h2.49c.367 0 .666.299.666.667v4H21.2v-4a2 2 0 00-2-2h-4zM2.8 9.333h2.488A3.28 3.28 0 016.8 8.385V7.97L2.8 8a2 2 0 00-2 2v4h1.333v-4c0-.368.299-.667.667-.667z" /><path fill-rule="evenodd" clip-rule="evenodd" d="M4.8 7.333c.976 0 1.83-.524 2.295-1.307a4.376 4.376 0 01-.281-3.108A2.667 2.667 0 104.8 7.333zm1.333-2.666a1.333 1.333 0 11-2.666 0 1.333 1.333 0 012.666 0z" /></svg>
